<svg width="19" height="19" viewBox="0 0 19 19" fill="none" xmlns="http://www.w3.org/2000/svg">
<path d="M15.0417 6.33334L11.875 9.5H14.25C14.25 12.1204 12.1204 14.25 9.5 14.25C8.70042 14.25 7.94042 14.0521 7.28333 13.6958L6.1275 14.8517C7.10125 15.4692 8.25708 15.8333 9.5 15.8333C12.9992 15.8333 15.8333 12.9992 15.8333 9.5H18.2083L15.0417 6.33334ZM4.75 9.5C4.75 6.87959 6.87958 4.75001 9.5 4.75001C10.2996 4.75001 11.0596 4.94792 11.7167 5.30417L12.8725 4.14834C11.8988 3.53084 10.7429 3.16667 9.5 3.16667C6.00083 3.16667 3.16667 6.00084 3.16667 9.5H0.791668L3.95833 12.6667L7.125 9.5H4.75Z" fill="black"/>
</svg>
